# xmcd
# Track frame offsets:
# 150
# 18724
# 31514
# 55920
# 76775
# 92754
# 114488
# 129681
# 155229
# 175045
#
# Disc length: 2545 seconds
# Revision: 0
# Processed by: cddbd v1.5.2PL0 Copyright (c) Steve Scherf et al.
# Submitted via: VisiTrax 2.10.2.252 - For more info visit www.synapsa.com
#
DISCID=7609ef0a
DTITLE=Michael k´s rumble pack - Gator crossing
DYEAR=2006
DGENRE=Blues
TTITLE0=Turn it up
TTITLE1=Give it to me two times
TTITLE2=Rub it on
TTITLE3=Another kind of love
TTITLE4=It´s over
TTITLE5=Middle of between
TTITLE6=Black Cadillac
TTITLE7=Knee deep in the blues
TTITLE8=Josephine
TTITLE9=For too long
EXTD=
EXTT0=
EXTT1=
EXTT2=
EXTT3=
EXTT4=
EXTT5=
EXTT6=
EXTT7=
EXTT8=
EXTT9=
PLAYORDER=
